# xmcd CD database file
#
# Track frame offsets:
#	150
#	17567
#	34066
#	49471
#	67392
#	84213
#	98562
#	119179
#	141843
#	155257
#	173743
#	187692
#	208549
#	232325
#	260377
#	277221
#	294577
#	310396
#	330438
#
# Disc length: 4649 seconds
#
# Revision: 0
# Processed by: cddbd v1.5.2PL0 Copyright (c) Steve Scherf et al.
# Submitted via: CDex 1.79
#
DISCID=1a122713
DTITLE=Fathead - Twenty Years Deep - The Very Best of Fathead 1992-2012
DYEAR=2012
DGENRE=Blues
TTITLE0=Somebody Else's But Mine
TTITLE1=Tell Me Why
TTITLE2=She's Trouble
TTITLE3=Shame On Ya
TTITLE4=One Day The Sun Will Shine
TTITLE5=Blues Weather
TTITLE6=Hooked On Your Love
TTITLE7=First Class Riff-Raff
TTITLE8=Real Crazy Mama
TTITLE9=The Sweetest Sound
TTITLE10=Walk Backwards
TTITLE11=Just Another DAy
TTITLE12=Building Full Of Blues
TTITLE13=Lay It On The Line
TTITLE14=Fire In The Hole
TTITLE15=She's Got The Look
TTITLE16=Monkey Time
TTITLE17=You're So Special
TTITLE18=Number Nine Train
EXTD=YEAR: 2012
EXTT0=
EXTT1=
EXTT2=
EXTT3=
EXTT4=
EXTT5=
EXTT6=
EXTT7=
EXTT8=
EXTT9=
EXTT10=
EXTT11=
EXTT12=
EXTT13=
EXTT14=
EXTT15=
EXTT16=
EXTT17=
EXTT18=
PLAYORDER=
